<svg xmlns="http://www.w3.org/2000/svg" xmlns:xlink="http://www.w3.org/1999/xlink"><symbol id="academy-icon"><path d="M8.32 3.6h.877V12H8.32V3.6ZM3.066 12h-.888V3.6h.888V12Zm5.34-3.876H2.969v-.78h5.436v.78ZM13.57 12V4.368h-2.952V3.6h6.792v.768h-2.952V12h-.888Zm5.259 0V3.6h.732l3.84 6.552h-.384L26.82 3.6h.732V12H26.7V4.932h.204l-3.504 6h-.42l-3.528-6h.228V12h-.852Zm11.46 0V3.6h.889v7.632h4.704V12H30.29Zm8.864 0 3.84-8.4h.876l3.84 8.4h-.936l-3.528-7.884h.36L40.077 12h-.924Zm1.512-2.244.264-.72h4.884l.264.72h-5.412Zm10.81 2.304a3.436 3.436 0 0 1-1.68-.408 3.09 3.09 0 0 1-1.151-1.14c-.28-.488-.42-1.044-.42-1.668 0-.632.14-1.188.42-1.668.28-.48.664-.856 1.152-1.128a3.436 3.436 0 0 1 1.68-.408c.536 0 1.02.104 1.452.312.432.208.772.52 1.02.936l-.636.432a2 2 0 0 0-.804-.708 2.402 2.402 0 0 0-1.044-.228c-.448 0-.852.104-1.212.312-.36.2-.644.484-.852.852-.208.368-.312.8-.312 1.296s.104.928.312 1.296c.208.368.492.656.852.864.36.2.764.3 1.212.3.376 0 .724-.076 1.044-.228.32-.152.588-.384.804-.696l.636.432c-.248.408-.588.72-1.02.936a3.304 3.304 0 0 1-1.452.312ZM59.57 12v-1.392l-.036-.228V8.052c0-.536-.152-.948-.456-1.236-.296-.288-.74-.432-1.332-.432a3.33 3.33 0 0 0-1.164.204c-.368.136-.68.316-.936.54l-.384-.636c.32-.272.704-.48 1.152-.624.448-.152.92-.228 1.416-.228.816 0 1.444.204 1.884.612.448.4.672 1.012.672 1.836V12h-.816Zm-2.172.06c-.472 0-.884-.076-1.236-.228a1.89 1.89 0 0 1-.792-.648c-.184-.28-.276-.6-.276-.96 0-.328.076-.624.228-.888.16-.272.416-.488.768-.648.36-.168.84-.252 1.44-.252h2.172v.636h-2.148c-.608 0-1.032.108-1.272.324a1.054 1.054 0 0 0-.348.804c0 .36.14.648.42.864.28.216.672.324 1.176.324.48 0 .892-.108 1.236-.324.352-.224.608-.544.768-.96l.192.588c-.16.416-.44.748-.84.996-.392.248-.888.372-1.488.372Zm7.81 0c-.6 0-1.14-.136-1.62-.408a2.964 2.964 0 0 1-1.116-1.128c-.272-.488-.408-1.048-.408-1.68 0-.64.136-1.2.408-1.68.272-.48.644-.852 1.116-1.116a3.228 3.228 0 0 1 1.62-.408c.552 0 1.044.124 1.476.372.44.248.788.612 1.044 1.092.264.472.396 1.052.396 1.74 0 .68-.128 1.26-.384 1.74s-.604.848-1.044 1.104c-.432.248-.928.372-1.488.372Zm.06-.756c.448 0 .848-.1 1.2-.3.36-.208.64-.496.84-.864.208-.376.312-.808.312-1.296 0-.496-.104-.928-.312-1.296-.2-.368-.48-.652-.84-.852a2.314 2.314 0 0 0-1.2-.312c-.44 0-.836.104-1.188.312-.352.2-.632.484-.84.852-.208.368-.312.8-.312 1.296 0 .488.104.92.312 1.296.208.368.488.656.84.864.352.2.748.3 1.188.3Zm2.376.696v-1.896l.084-1.272-.12-1.272V3.096h.852V12h-.816Zm5.864.06c-.655 0-1.231-.136-1.727-.408a3.064 3.064 0 0 1-1.165-1.14c-.28-.488-.42-1.044-.42-1.668 0-.624.133-1.176.397-1.656a2.99 2.99 0 0 1 1.103-1.128c.472-.28 1-.42 1.585-.42.591 0 1.115.136 1.572.408a2.8 2.8 0 0 1 1.092 1.128c.264.48.396 1.036.396 1.668 0 .04-.004.084-.012.132v.132h-5.484v-.636h5.028l-.337.252c0-.456-.1-.86-.3-1.212a2.11 2.11 0 0 0-.791-.84c-.336-.2-.724-.3-1.164-.3-.433 0-.82.1-1.165.3-.344.2-.612.48-.803.84-.192.36-.288.772-.288 1.236v.132c0 .48.103.904.311 1.272.216.36.513.644.889.852.384.2.82.3 1.308.3.383 0 .74-.068 1.067-.204.337-.136.625-.344.865-.624l.48.552c-.28.336-.632.592-1.056.768a3.507 3.507 0 0 1-1.38.264Zm12.439-6.42c.512 0 .956.1 1.332.3.384.192.68.488.888.888.216.4.324.904.324 1.512V12h-.852V8.424c0-.664-.16-1.164-.48-1.5-.312-.344-.756-.516-1.332-.516-.432 0-.808.092-1.128.276a1.82 1.82 0 0 0-.732.78c-.168.336-.252.744-.252 1.224V12h-.852V8.424c0-.664-.16-1.164-.48-1.5-.32-.344-.768-.516-1.344-.516a2.2 2.2 0 0 0-1.116.276 1.8 1.8 0 0 0-.744.78c-.168.336-.252.744-.252 1.224V12h-.852V5.7h.816v1.704l-.132-.3c.192-.456.5-.812.924-1.068.432-.264.94-.396 1.524-.396.616 0 1.14.156 1.572.468.432.304.712.764.84 1.38l-.336-.132c.184-.512.508-.924.972-1.236.472-.32 1.036-.48 1.692-.48Zm4.785 8.748c-.296 0-.58-.048-.852-.144a1.846 1.846 0 0 1-.684-.432l.396-.636c.16.152.332.268.516.348.192.088.404.132.636.132.28 0 .52-.08.72-.24.208-.152.404-.424.588-.816l.408-.924.096-.132L95.148 5.7h.84l-3.156 7.056c-.176.408-.372.732-.588.972-.208.24-.436.408-.684.504a2.121 2.121 0 0 1-.828.156Zm1.68-2.208L89.508 5.7h.888l2.568 5.784-.552.696ZM111.215 5.754 105.972 2.5v-.001h-.001l-5.186 3.251V1.407L106 .83l5.215.576v4.347Zm-.004.576-2.085 1.293-3.141-1.967-.006.573 2.685 1.68-.463.288-2.216-1.388-.006.572 1.75 1.095-.413.291-.01.007-1.321-.82-.006.572.868.538-.884.558-5.167-3.233 5.175-3.275 5.24 3.216Zm.004 5.441L106 15.038l-5.215-3.267V7.025l5.193 3.255.008.59-3.562-2.233-.005.573 3.576 2.263.009.605-3.575-2.24-.005.573L106 12.675l3.606-2.272V7.957l1.609-1.011v4.825ZM106 0l-6 .662v11.58L106 16l6-3.759V.662L106 0Z" fill="currentColor"/></symbol><symbol id="arrow-icon"><path fill-rule="evenodd" clip-rule="evenodd" d="M9.717 0 11 1.32 2.567 10 11 18.68 9.717 20 0 10 9.717 0Z" fill="currentColor"/></symbol><symbol id="card-cart-icon"><path fill-rule="evenodd" clip-rule="evenodd" d="m13.674 13.522.003-.022h1.347l-.03.21a2.667 2.667 0 0 1-2.64 2.29H3.646a2.667 2.667 0 0 1-2.64-2.29L.19 8 0 6.667h4.556l-.224-2.68A3.68 3.68 0 0 1 11.618 3h-1.37a2.348 2.348 0 0 0-4.587.875l.233 2.792H9.5V8H6.058l.222 2.667h3.44l.014-.167h1.338l-.014.167H12.5V12h-1.553l-.222 2.667h1.629c.663 0 1.226-.488 1.32-1.145ZM4.72 8H1.537l.381 2.667h3.024L4.72 8Zm1.893 6.667L6.391 12H9.61l-.222 2.667H6.613ZM5.053 12l.222 2.667H3.646a1.333 1.333 0 0 1-1.32-1.145L2.11 12h2.944ZM15.8 10V7.2H13V5.8h2.8V3h1.4v2.8H20v1.4h-2.8V10h-1.4Z" fill="currentColor"/></symbol><symbol id="cart-icon"><path fill-rule="evenodd" clip-rule="evenodd" d="m5.66 3.875.234 2.792h4.213l.232-2.792a2.347 2.347 0 1 0-4.678 0Zm5.784 2.792.224-2.68a3.68 3.68 0 1 0-7.336 0l.224 2.68H0L.19 8l.816 5.71A2.667 2.667 0 0 0 3.646 16h8.708a2.667 2.667 0 0 0 2.64-2.29L15.81 8 16 6.667h-4.556ZM11.334 8h-.054l-.222 2.667h3.024L14.462 8h-3.129ZM9.941 8H6.058l.222 2.667h3.44L9.942 8ZM4.72 8H1.537l.381 2.667h3.024L4.72 8Zm1.893 6.667L6.391 12H9.61l-.222 2.667H6.613ZM10.947 12l-.222 2.667h1.629c.663 0 1.226-.488 1.32-1.145L13.89 12h-2.944Zm-5.894 0 .222 2.667H3.646a1.333 1.333 0 0 1-1.32-1.145L2.11 12h2.944Z" fill="currentColor"/></symbol><symbol id="ok-icon"><path fill-rule="evenodd" clip-rule="evenodd" d="M1.4 1.4C0 2.812 0 5.074 0 9.6v.914c0 4.456 0 6.698 1.4 8.086C2.812 20 5.074 20 9.6 20h.913c4.457 0 6.699 0 8.087-1.4 1.4-1.412 1.4-3.674 1.4-8.2v-.913c0-4.457 0-6.699-1.4-8.087C17.188 0 14.926 0 10.4 0h-.914C5.03 0 2.788 0 1.4 1.4Zm8.62 8.797a3.034 3.034 0 0 0 3.028-3.028 3.038 3.038 0 0 0-6.075 0 3.038 3.038 0 0 0 3.046 3.028Zm0-4.28c.688 0 1.25.563 1.25 1.252 0 .689-.562 1.251-1.25 1.251-.69 0-1.252-.562-1.252-1.251-.018-.69.544-1.251 1.251-1.251Zm1.214 6.764a5.729 5.729 0 0 0 1.76-.725.883.883 0 0 0 .271-1.233.883.883 0 0 0-1.233-.272 3.85 3.85 0 0 1-4.08 0 .903.903 0 0 0-1.233.272.904.904 0 0 0 .308 1.215c.544.345 1.143.58 1.76.725L7.1 14.35a.886.886 0 0 0 0 1.251.861.861 0 0 0 .635.254.94.94 0 0 0 .634-.254l1.668-1.668 1.669 1.668a.887.887 0 0 0 1.251 0 .887.887 0 0 0 0-1.251l-1.723-1.668Z" fill="currentColor"/></symbol><symbol id="pagination-arrow-icon"><path fill-rule="evenodd" clip-rule="evenodd" d="M4.808 0 6 1.239 2.383 5 6 8.761 4.808 10 0 5l4.808-5Z" fill="currentColor"/></symbol><symbol id="pinterest-icon"><path d="M11 0C4.925 0 0 4.925 0 11c0 4.66 2.9 8.644 6.991 10.247-.096-.87-.183-2.21.038-3.16.2-.858 1.29-5.467 1.29-5.467s-.329-.659-.329-1.633c0-1.53.887-2.672 1.99-2.672.94 0 1.392.705 1.392 1.55 0 .944-.6 2.355-.91 3.662-.26 1.095.549 1.988 1.628 1.988 1.955 0 3.458-2.061 3.458-5.037 0-2.634-1.892-4.475-4.595-4.475-3.13 0-4.966 2.347-4.966 4.773 0 .946.364 1.96.818 2.51.09.11.103.205.076.316-.083.348-.269 1.095-.305 1.248-.048.201-.16.244-.368.147-1.374-.64-2.233-2.648-2.233-4.262 0-3.47 2.521-6.656 7.268-6.656 3.816 0 6.782 2.719 6.782 6.353 0 3.79-2.39 6.842-5.708 6.842-1.115 0-2.163-.58-2.522-1.263l-.685 2.615c-.248.955-.919 2.153-1.367 2.883 1.03.319 2.123.49 3.257.49 6.075 0 11-4.924 11-11C22 4.926 17.075 0 11 0Z" fill="currentColor"/></symbol><symbol id="user-icon"><path fill-rule="evenodd" clip-rule="evenodd" d="M10.667 4a2.667 2.667 0 1 1-5.334 0 2.667 2.667 0 0 1 5.334 0ZM12 4a4 4 0 1 1-8 0 4 4 0 0 1 8 0Zm-8.803 8.31C4.437 11.277 6.16 10.667 8 10.667s3.564.61 4.803 1.643c1.232 1.027 1.864 2.362 1.864 3.69H16c0-1.768-.843-3.464-2.343-4.714-1.5-1.25-3.535-1.953-5.657-1.953s-4.157.703-5.657 1.953S0 14.232 0 16h1.333c0-1.328.632-2.663 1.864-3.69Z" fill="currentColor"/></symbol><symbol id="vk-icon"><path fill-rule="evenodd" clip-rule="evenodd" d="M1.406 1.406C0 2.812 0 5.074 0 9.6v.8c0 4.525 0 6.788 1.406 8.194C2.812 20 5.074 20 9.6 20h.8c4.525 0 6.788 0 8.194-1.406C20 17.188 20 14.925 20 10.4v-.8c0-4.526 0-6.788-1.406-8.194C17.188 0 14.925 0 10.4 0h-.8C5.074 0 2.812 0 1.406 1.406Zm1.969 4.677c.108 5.2 2.708 8.325 7.267 8.325h.258v-2.975c1.675.167 2.942 1.392 3.45 2.975h2.367c-.65-2.366-2.359-3.675-3.425-4.175 1.066-.616 2.566-2.116 2.925-4.15h-2.15c-.467 1.65-1.85 3.15-3.167 3.292V6.083H8.75v5.767c-1.333-.333-3.017-1.95-3.092-5.767H3.375Z" fill="currentColor"/></symbol></svg>